<mxfile host="app.diagrams.net" modified="2023-11-20T11:46:36.758Z" agent="Mozilla/5.0 (X11; Linux x86_64; rv:109.0) Gecko/20100101 Firefox/114.0" etag="9-a__8r3cLoPFx3f9mHQ" version="22.1.3" type="device">
  <diagram name="Página-1" id="Jvq6VPvHD00eiKK3wk_r">
    <mxGraphModel dx="1434" dy="778" grid="1" gridSize="10" guides="1" tooltips="1" connect="1" arrows="1" fold="1" page="1" pageScale="1" pageWidth="827" pageHeight="1169" math="0" shadow="0">
      <root>
        <mxCell id="0" />
        <mxCell id="1" parent="0" />
        <mxCell id="L0i3NYmrVOfoVelWgmp5-2" style="edgeStyle=orthogonalEdgeStyle;rounded=0;orthogonalLoop=1;jettySize=auto;html=1;entryX=0;entryY=0.5;entryDx=0;entryDy=0;fillColor=#A8DADC;strokeColor=#457B9D;labelBackgroundColor=none;fontColor=default;" edge="1" parent="1" source="L0i3NYmrVOfoVelWgmp5-1" target="L0i3NYmrVOfoVelWgmp5-3">
          <mxGeometry relative="1" as="geometry">
            <mxPoint x="290" y="370" as="targetPoint" />
          </mxGeometry>
        </mxCell>
        <mxCell id="L0i3NYmrVOfoVelWgmp5-4" style="edgeStyle=orthogonalEdgeStyle;rounded=0;orthogonalLoop=1;jettySize=auto;html=1;entryX=0;entryY=0.5;entryDx=0;entryDy=0;fillColor=#A8DADC;strokeColor=#457B9D;labelBackgroundColor=none;fontColor=default;" edge="1" parent="1" source="L0i3NYmrVOfoVelWgmp5-1" target="L0i3NYmrVOfoVelWgmp5-5">
          <mxGeometry relative="1" as="geometry">
            <mxPoint x="290" y="400" as="targetPoint" />
          </mxGeometry>
        </mxCell>
        <mxCell id="L0i3NYmrVOfoVelWgmp5-1" value="Home" style="rounded=1;whiteSpace=wrap;html=1;fillColor=#A8DADC;strokeColor=#457B9D;labelBackgroundColor=none;fontColor=#1D3557;" vertex="1" parent="1">
          <mxGeometry x="80" y="340" width="110" height="50" as="geometry" />
        </mxCell>
        <mxCell id="L0i3NYmrVOfoVelWgmp5-9" style="edgeStyle=orthogonalEdgeStyle;rounded=0;orthogonalLoop=1;jettySize=auto;html=1;entryX=0;entryY=0.5;entryDx=0;entryDy=0;fillColor=#A8DADC;strokeColor=#457B9D;labelBackgroundColor=none;fontColor=default;" edge="1" parent="1" source="L0i3NYmrVOfoVelWgmp5-3" target="L0i3NYmrVOfoVelWgmp5-6">
          <mxGeometry relative="1" as="geometry" />
        </mxCell>
        <mxCell id="L0i3NYmrVOfoVelWgmp5-3" value="Cadastro" style="rounded=1;whiteSpace=wrap;html=1;fillColor=#A8DADC;strokeColor=#457B9D;labelBackgroundColor=none;fontColor=#1D3557;" vertex="1" parent="1">
          <mxGeometry x="250" y="320" width="96" height="30" as="geometry" />
        </mxCell>
        <mxCell id="L0i3NYmrVOfoVelWgmp5-8" style="edgeStyle=orthogonalEdgeStyle;rounded=0;orthogonalLoop=1;jettySize=auto;html=1;entryX=0;entryY=0.5;entryDx=0;entryDy=0;fillColor=#A8DADC;strokeColor=#457B9D;labelBackgroundColor=none;fontColor=default;" edge="1" parent="1" source="L0i3NYmrVOfoVelWgmp5-5" target="L0i3NYmrVOfoVelWgmp5-7">
          <mxGeometry relative="1" as="geometry" />
        </mxCell>
        <mxCell id="L0i3NYmrVOfoVelWgmp5-5" value="Login" style="rounded=1;whiteSpace=wrap;html=1;fillColor=#A8DADC;strokeColor=#457B9D;labelBackgroundColor=none;fontColor=#1D3557;" vertex="1" parent="1">
          <mxGeometry x="250" y="380" width="96" height="30" as="geometry" />
        </mxCell>
        <mxCell id="L0i3NYmrVOfoVelWgmp5-17" style="edgeStyle=orthogonalEdgeStyle;rounded=0;orthogonalLoop=1;jettySize=auto;html=1;entryX=0;entryY=0.5;entryDx=0;entryDy=0;fillColor=#A8DADC;strokeColor=#457B9D;labelBackgroundColor=none;fontColor=default;" edge="1" parent="1" source="L0i3NYmrVOfoVelWgmp5-6" target="L0i3NYmrVOfoVelWgmp5-15">
          <mxGeometry relative="1" as="geometry" />
        </mxCell>
        <mxCell id="L0i3NYmrVOfoVelWgmp5-18" style="edgeStyle=orthogonalEdgeStyle;rounded=0;orthogonalLoop=1;jettySize=auto;html=1;fillColor=#A8DADC;strokeColor=#457B9D;labelBackgroundColor=none;fontColor=default;" edge="1" parent="1" source="L0i3NYmrVOfoVelWgmp5-6" target="L0i3NYmrVOfoVelWgmp5-16">
          <mxGeometry relative="1" as="geometry" />
        </mxCell>
        <mxCell id="L0i3NYmrVOfoVelWgmp5-20" style="edgeStyle=orthogonalEdgeStyle;rounded=0;orthogonalLoop=1;jettySize=auto;html=1;entryX=0.5;entryY=1;entryDx=0;entryDy=0;strokeColor=#457B9D;fontColor=#1D3557;fillColor=#A8DADC;" edge="1" parent="1" source="L0i3NYmrVOfoVelWgmp5-6" target="L0i3NYmrVOfoVelWgmp5-19">
          <mxGeometry relative="1" as="geometry" />
        </mxCell>
        <mxCell id="L0i3NYmrVOfoVelWgmp5-6" value="Cliente" style="rounded=1;whiteSpace=wrap;html=1;fillColor=#A8DADC;strokeColor=#457B9D;labelBackgroundColor=none;fontColor=#1D3557;" vertex="1" parent="1">
          <mxGeometry x="390" y="250" width="96" height="30" as="geometry" />
        </mxCell>
        <mxCell id="L0i3NYmrVOfoVelWgmp5-13" style="edgeStyle=orthogonalEdgeStyle;rounded=0;orthogonalLoop=1;jettySize=auto;html=1;entryX=0;entryY=0.5;entryDx=0;entryDy=0;fillColor=#A8DADC;strokeColor=#457B9D;labelBackgroundColor=none;fontColor=default;" edge="1" parent="1" source="L0i3NYmrVOfoVelWgmp5-7" target="L0i3NYmrVOfoVelWgmp5-10">
          <mxGeometry relative="1" as="geometry" />
        </mxCell>
        <mxCell id="L0i3NYmrVOfoVelWgmp5-14" style="edgeStyle=orthogonalEdgeStyle;rounded=0;orthogonalLoop=1;jettySize=auto;html=1;entryX=0;entryY=0.5;entryDx=0;entryDy=0;fillColor=#A8DADC;strokeColor=#457B9D;labelBackgroundColor=none;fontColor=default;" edge="1" parent="1" source="L0i3NYmrVOfoVelWgmp5-7" target="L0i3NYmrVOfoVelWgmp5-11">
          <mxGeometry relative="1" as="geometry" />
        </mxCell>
        <mxCell id="L0i3NYmrVOfoVelWgmp5-22" style="edgeStyle=orthogonalEdgeStyle;rounded=0;orthogonalLoop=1;jettySize=auto;html=1;entryX=0;entryY=0.5;entryDx=0;entryDy=0;strokeColor=#457B9D;fontColor=#1D3557;fillColor=#A8DADC;" edge="1" parent="1" source="L0i3NYmrVOfoVelWgmp5-7" target="L0i3NYmrVOfoVelWgmp5-21">
          <mxGeometry relative="1" as="geometry" />
        </mxCell>
        <mxCell id="L0i3NYmrVOfoVelWgmp5-7" value="Admin" style="rounded=1;whiteSpace=wrap;html=1;fillColor=#A8DADC;strokeColor=#457B9D;labelBackgroundColor=none;fontColor=#1D3557;" vertex="1" parent="1">
          <mxGeometry x="390" y="450" width="96" height="30" as="geometry" />
        </mxCell>
        <mxCell id="L0i3NYmrVOfoVelWgmp5-10" value="Cadastro Produto" style="rounded=1;whiteSpace=wrap;html=1;fillColor=#A8DADC;strokeColor=#457B9D;labelBackgroundColor=none;fontColor=#1D3557;" vertex="1" parent="1">
          <mxGeometry x="530" y="410" width="96" height="30" as="geometry" />
        </mxCell>
        <mxCell id="L0i3NYmrVOfoVelWgmp5-26" style="edgeStyle=orthogonalEdgeStyle;rounded=0;orthogonalLoop=1;jettySize=auto;html=1;strokeColor=#457B9D;fontColor=#1D3557;fillColor=#A8DADC;" edge="1" parent="1" source="L0i3NYmrVOfoVelWgmp5-11" target="L0i3NYmrVOfoVelWgmp5-25">
          <mxGeometry relative="1" as="geometry" />
        </mxCell>
        <mxCell id="L0i3NYmrVOfoVelWgmp5-11" value="Visualizações" style="rounded=1;whiteSpace=wrap;html=1;fillColor=#A8DADC;strokeColor=#457B9D;labelBackgroundColor=none;fontColor=#1D3557;" vertex="1" parent="1">
          <mxGeometry x="530" y="450" width="96" height="30" as="geometry" />
        </mxCell>
        <mxCell id="L0i3NYmrVOfoVelWgmp5-15" value="&lt;div&gt;Compra&lt;/div&gt;" style="rounded=1;whiteSpace=wrap;html=1;fillColor=#A8DADC;strokeColor=#457B9D;labelBackgroundColor=none;fontColor=#1D3557;" vertex="1" parent="1">
          <mxGeometry x="520" y="230" width="96" height="30" as="geometry" />
        </mxCell>
        <mxCell id="L0i3NYmrVOfoVelWgmp5-24" style="edgeStyle=orthogonalEdgeStyle;rounded=0;orthogonalLoop=1;jettySize=auto;html=1;strokeColor=#457B9D;fontColor=#1D3557;fillColor=#A8DADC;" edge="1" parent="1" source="L0i3NYmrVOfoVelWgmp5-16" target="L0i3NYmrVOfoVelWgmp5-23">
          <mxGeometry relative="1" as="geometry" />
        </mxCell>
        <mxCell id="L0i3NYmrVOfoVelWgmp5-16" value="Visualizações" style="rounded=1;whiteSpace=wrap;html=1;fillColor=#A8DADC;strokeColor=#457B9D;labelBackgroundColor=none;fontColor=#1D3557;" vertex="1" parent="1">
          <mxGeometry x="520" y="270" width="96" height="30" as="geometry" />
        </mxCell>
        <mxCell id="L0i3NYmrVOfoVelWgmp5-19" value="Carrinho" style="rounded=1;whiteSpace=wrap;html=1;fillColor=#A8DADC;strokeColor=#457B9D;labelBackgroundColor=none;fontColor=#1D3557;" vertex="1" parent="1">
          <mxGeometry x="390" y="170" width="96" height="30" as="geometry" />
        </mxCell>
        <mxCell id="L0i3NYmrVOfoVelWgmp5-21" value="Cadastro Funcionário" style="rounded=1;whiteSpace=wrap;html=1;fillColor=#A8DADC;strokeColor=#457B9D;labelBackgroundColor=none;fontColor=#1D3557;" vertex="1" parent="1">
          <mxGeometry x="530" y="490" width="96" height="30" as="geometry" />
        </mxCell>
        <mxCell id="L0i3NYmrVOfoVelWgmp5-23" value="&lt;div&gt;01. Login&lt;/div&gt;&lt;div&gt;02. Cadastro&lt;/div&gt;&lt;div&gt;03. Home&lt;/div&gt;&lt;div&gt;04. Produtos&lt;/div&gt;&lt;div&gt;05. Histórico de Compra&lt;/div&gt;&lt;div&gt;06. Concluir Pedido&lt;/div&gt;&lt;div&gt;07. Carrinho&lt;/div&gt;&lt;div&gt;8. Concluir Compra&lt;/div&gt;&lt;div&gt;09. Suporte&lt;br&gt;&lt;/div&gt;" style="rounded=1;whiteSpace=wrap;html=1;fillColor=#A8DADC;strokeColor=#457B9D;labelBackgroundColor=none;fontColor=#1D3557;align=left;labelBorderColor=none;" vertex="1" parent="1">
          <mxGeometry x="660" y="200" width="120" height="170" as="geometry" />
        </mxCell>
        <mxCell id="L0i3NYmrVOfoVelWgmp5-25" value="&lt;div&gt;01. Inicio&lt;br&gt;&lt;/div&gt;&lt;div&gt;02. Cadastro Produto&lt;br&gt;&lt;/div&gt;&lt;div&gt;03. Cadastro Funcionário&lt;br&gt;&lt;/div&gt;&lt;div&gt;04. Cadastro Cliente&lt;br&gt;&lt;/div&gt;&lt;div&gt;05. Estoque&lt;br&gt;&lt;/div&gt;&lt;div&gt;06. Carrinho&lt;br&gt;&lt;/div&gt;&lt;div&gt;07. Compras&lt;/div&gt;&lt;div&gt;08. Vendas&lt;br&gt;&lt;/div&gt;" style="rounded=1;whiteSpace=wrap;html=1;fillColor=#A8DADC;strokeColor=#457B9D;labelBackgroundColor=none;fontColor=#1D3557;align=left;labelBorderColor=none;" vertex="1" parent="1">
          <mxGeometry x="655" y="385" width="130" height="160" as="geometry" />
        </mxCell>
      </root>
    </mxGraphModel>
  </diagram>
</mxfile>
